<svg width="24" height="24" viewBox="0 0 24 24" fill="none" xmlns="http://www.w3.org/2000/svg">
<path d="M8.29688 15.7266H9.67735C9.7875 15.7266 9.89297 15.6773 9.96563 15.593L12 13.1672L14.0344 15.593C14.1047 15.6773 14.2102 15.7266 14.3227 15.7266H15.7031C15.8625 15.7266 15.9492 15.5414 15.8461 15.4195L12.9797 12L15.8484 8.58047C15.9516 8.45859 15.8648 8.27344 15.7055 8.27344H14.325C14.2148 8.27344 14.1094 8.32266 14.0367 8.40703L12 10.8328L9.96563 8.40703C9.89532 8.32266 9.78985 8.27344 9.67735 8.27344H8.29688C8.1375 8.27344 8.05079 8.45859 8.15391 8.58047L11.0203 12L8.15391 15.4195C8.13081 15.4467 8.11599 15.4799 8.11121 15.5153C8.10643 15.5506 8.11189 15.5866 8.12694 15.6189C8.142 15.6512 8.16601 15.6785 8.19613 15.6976C8.22625 15.7167 8.26122 15.7268 8.29688 15.7266Z" fill="black"/>
<path d="M20.625 2.625H3.375C2.96016 2.625 2.625 2.96016 2.625 3.375V20.625C2.625 21.0398 2.96016 21.375 3.375 21.375H20.625C21.0398 21.375 21.375 21.0398 21.375 20.625V3.375C21.375 2.96016 21.0398 2.625 20.625 2.625ZM19.6875 19.6875H4.3125V4.3125H19.6875V19.6875Z" fill="black"/>
</svg>
