<svg width="24" height="24" viewBox="0 0 24 24" fill="none" xmlns="http://www.w3.org/2000/svg">
<path d="M4.5 19.5C4.08333 19.5 3.72933 19.354 3.438 19.062C3.146 18.7707 3 18.4167 3 18C3 17.5833 3.146 17.2293 3.438 16.938C3.72933 16.646 4.08333 16.5 4.5 16.5C4.91667 16.5 5.27067 16.646 5.562 16.938C5.854 17.2293 6 17.5833 6 18C6 18.4167 5.854 18.7707 5.562 19.062C5.27067 19.354 4.91667 19.5 4.5 19.5ZM8 19V17H21V19H8ZM4.5 13.5C4.08333 13.5 3.72933 13.354 3.438 13.062C3.146 12.7707 3 12.4167 3 12C3 11.5833 3.146 11.2293 3.438 10.938C3.72933 10.646 4.08333 10.5 4.5 10.5C4.91667 10.5 5.27067 10.646 5.562 10.938C5.854 11.2293 6 11.5833 6 12C6 12.4167 5.854 12.7707 5.562 13.062C5.27067 13.354 4.91667 13.5 4.5 13.5ZM8 13V11H21V13H8ZM4.5 7.5C4.08333 7.5 3.72933 7.354 3.438 7.062C3.146 6.77067 3 6.41667 3 6C3 5.58333 3.146 5.22933 3.438 4.938C3.72933 4.646 4.08333 4.5 4.5 4.5C4.91667 4.5 5.27067 4.646 5.562 4.938C5.854 5.22933 6 5.58333 6 6C6 6.41667 5.854 6.77067 5.562 7.062C5.27067 7.354 4.91667 7.5 4.5 7.5ZM8 7V5H21V7H8Z" fill="#A1C6EA"/>
</svg>
