<svg width="96" height="19" viewBox="0 0 96 19" fill="none" xmlns="http://www.w3.org/2000/svg">
<path d="M3.55 10.55L0.225 0.499999H3.15L5.025 6.925H5.075L6.95 0.499999H9.625L6.3 10.55V18H3.55V10.55ZM14.8639 18.25C13.5305 18.25 12.5139 17.875 11.8139 17.125C11.1139 16.3583 10.7639 15.2667 10.7639 13.85V0.499999H13.5139V14.05C13.5139 14.65 13.6305 15.0833 13.8639 15.35C14.1139 15.6167 14.4639 15.75 14.9139 15.75C15.3639 15.75 15.7055 15.6167 15.9389 15.35C16.1889 15.0833 16.3139 14.65 16.3139 14.05V0.499999H18.9639V13.85C18.9639 15.2667 18.6139 16.3583 17.9139 17.125C17.2139 17.875 16.1972 18.25 14.8639 18.25ZM20.9225 0.499999H23.6725V7.875L27.1725 0.499999H29.9225L26.6475 6.925L29.9725 18H27.0975L24.7725 10.2L23.6725 12.425V18H20.9225V0.499999ZM31.274 0.499999H34.024V18H31.274V0.499999Z" fill="#A1C6EA"/>
<path d="M36.0836 0.499999H40.1586C41.5753 0.499999 42.6086 0.833332 43.2586 1.5C43.9086 2.15 44.2336 3.15833 44.2336 4.525V5.6C44.2336 7.41667 43.6336 8.56667 42.4336 9.05V9.1C43.1003 9.3 43.5669 9.70833 43.8336 10.325C44.1169 10.9417 44.2586 11.7667 44.2586 12.8V15.875C44.2586 16.375 44.2753 16.7833 44.3086 17.1C44.3419 17.4 44.4253 17.7 44.5586 18H41.7586C41.6586 17.7167 41.5919 17.45 41.5586 17.2C41.5253 16.95 41.5086 16.5 41.5086 15.85V12.65C41.5086 11.85 41.3753 11.2917 41.1086 10.975C40.8586 10.6583 40.4169 10.5 39.7836 10.5H38.8336V18H36.0836V0.499999ZM39.8336 8C40.3836 8 40.7919 7.85833 41.0586 7.575C41.3419 7.29167 41.4836 6.81667 41.4836 6.15V4.8C41.4836 4.16667 41.3669 3.70833 41.1336 3.425C40.9169 3.14167 40.5669 3 40.0836 3H38.8336V8H39.8336ZM48.301 10.55L44.976 0.499999H47.901L49.776 6.925H49.826L51.701 0.499999H54.376L51.051 10.55V18H48.301V10.55ZM57.8625 3H54.9875V0.499999H63.4875V3H60.6125V18H57.8625V3ZM64.8189 0.499999H67.5689V7.625H70.5189V0.499999H73.2689V18H70.5189V10.125H67.5689V18H64.8189V0.499999ZM75.317 0.499999H82.817V3H78.067V7.625H81.842V10.125H78.067V15.5H82.817V18H75.317V0.499999ZM84.399 0.499999H88.324L90.074 13.025H90.124L91.874 0.499999H95.799V18H93.199V4.75H93.149L91.149 18H88.849L86.849 4.75H86.799V18H84.399V0.499999Z" fill="#DAE3E5"/>
</svg>
