<svg width="24" height="24" viewBox="0 0 30 31" fill="none" xmlns="http://www.w3.org/2000/svg">
<path d="M22.0625 8.4375C21.1374 7.50606 20.037 6.76695 18.8249 6.26279C17.6127 5.75863 16.3128 5.49938 15 5.5C12.3478 5.5 9.8043 6.55357 7.92893 8.42893C6.05357 10.3043 5 12.8478 5 15.5C5 18.1522 6.05357 20.6957 7.92893 22.5711C9.8043 24.4464 12.3478 25.5 15 25.5C19.6625 25.5 23.55 22.3125 24.6625 18H22.0625C21.5476 19.4619 20.5917 20.728 19.3267 21.6235C18.0617 22.5191 16.5499 23.0001 15 23C13.0109 23 11.1032 22.2098 9.6967 20.8033C8.29018 19.3968 7.5 17.4891 7.5 15.5C7.5 13.5109 8.29018 11.6032 9.6967 10.1967C11.1032 8.79018 13.0109 8 15 8C17.075 8 18.925 8.8625 20.275 10.225L16.25 14.25H25V5.5L22.0625 8.4375Z" fill="#507DBC"/>
</svg>
