<svg width="24" height="24" viewBox="0 0 24 24" fill="none" xmlns="http://www.w3.org/2000/svg">
<path d="M0.750007 8.25C0.750007 8.44891 0.829024 8.63968 0.969676 8.78033C1.11033 8.92098 1.30109 9 1.50001 9H3.00001V10.5C3.00001 10.6989 3.07902 10.8897 3.21968 11.0303C3.36033 11.171 3.55109 11.25 3.75001 11.25C3.94892 11.25 4.13969 11.171 4.28034 11.0303C4.42099 10.8897 4.50001 10.6989 4.50001 10.5V9H6.00001C6.19892 9 6.38969 8.92098 6.53034 8.78033C6.67099 8.63968 6.75001 8.44891 6.75001 8.25C6.75001 8.05109 6.67099 7.86032 6.53034 7.71967C6.38969 7.57902 6.19892 7.5 6.00001 7.5H4.50001V6C4.50001 5.80109 4.42099 5.61032 4.28034 5.46967C4.13969 5.32902 3.94892 5.25 3.75001 5.25C3.55109 5.25 3.36033 5.32902 3.21968 5.46967C3.07902 5.61032 3.00001 5.80109 3.00001 6V7.5H1.50001C1.30109 7.5 1.11033 7.57902 0.969676 7.71967C0.829024 7.86032 0.750007 8.05109 0.750007 8.25ZM9.75001 4.5H9.00001V5.25C9.00001 5.44891 8.92099 5.63968 8.78034 5.78033C8.63969 5.92098 8.44892 6 8.25001 6C8.05109 6 7.86033 5.92098 7.71968 5.78033C7.57902 5.63968 7.50001 5.44891 7.50001 5.25V4.5H6.75001C6.55109 4.5 6.36033 4.42098 6.21968 4.28033C6.07902 4.13968 6.00001 3.94891 6.00001 3.75C6.00001 3.55109 6.07902 3.36032 6.21968 3.21967C6.36033 3.07902 6.55109 3 6.75001 3H7.50001V2.25C7.50001 2.05109 7.57902 1.86032 7.71968 1.71967C7.86033 1.57902 8.05109 1.5 8.25001 1.5C8.44892 1.5 8.63969 1.57902 8.78034 1.71967C8.92099 1.86032 9.00001 2.05109 9.00001 2.25V3H9.75001C9.94892 3 10.1397 3.07902 10.2803 3.21967C10.421 3.36032 10.5 3.55109 10.5 3.75C10.5 3.94891 10.421 4.13968 10.2803 4.28033C10.1397 4.42098 9.94892 4.5 9.75001 4.5ZM2.97188 14.0719C2.92521 14.2182 2.92521 14.3755 2.97188 14.5219C3.41203 16.099 4.25759 17.5334 5.42438 18.6822C6.59117 19.831 8.0385 20.6542 9.62231 21.0698C11.2061 21.4854 12.8712 21.479 14.4517 21.0511C16.0322 20.6232 17.4731 19.7888 18.631 18.6309C19.7888 17.4731 20.6232 16.0322 21.0511 14.4517C21.479 12.8712 21.4854 11.2061 21.0698 9.62231C20.6542 8.0385 19.831 6.59116 18.6822 5.42437C17.5334 4.25758 16.099 3.41202 14.5219 2.97188C14.362 2.92214 14.1899 2.92875 14.0344 2.99063C13.8885 3.04933 13.7647 3.15243 13.6806 3.28534C13.5964 3.41825 13.5562 3.57424 13.5656 3.73125C13.5659 3.78865 13.5754 3.84563 13.5938 3.9C13.9657 5.24245 13.9749 6.65954 13.6204 8.0067C13.2659 9.35387 12.5603 10.5829 11.5758 11.5684C10.5913 12.5539 9.36293 13.2606 8.01611 13.6164C6.66929 13.9722 5.2522 13.9644 3.90938 13.5938L3.70313 13.5563C3.54268 13.5551 3.3859 13.6042 3.25476 13.6967C3.12363 13.7892 3.02471 13.9204 2.97188 14.0719ZM4.84688 15.3C6.26177 15.4765 7.6983 15.3277 9.04693 14.8648C10.3956 14.4019 11.6207 13.6372 12.6289 12.6289C13.6372 11.6207 14.4019 10.3956 14.8648 9.04692C15.3277 7.69829 15.4765 6.26177 15.3 4.84688C16.451 5.37914 17.4564 6.1815 18.2308 7.18571C19.0052 8.18993 19.5256 9.3663 19.7478 10.6148C19.97 11.8633 19.8874 13.147 19.507 14.3567C19.1266 15.5664 18.4598 16.6664 17.5631 17.5631C16.6664 18.4598 15.5664 19.1266 14.3567 19.507C13.147 19.8874 11.8633 19.97 10.6148 19.7478C9.3663 19.5256 8.18993 19.0052 7.18572 18.2308C6.18151 17.4564 5.37915 16.451 4.84688 15.3Z" fill="#04080F"/>
</svg>
