<svg width="32" height="32" viewBox="0 0 46 47" fill="none" xmlns="http://www.w3.org/2000/svg">
<path d="M33.5417 35C32.9986 35 32.5437 34.816 32.177 34.448C31.809 34.0813 31.625 33.6264 31.625 33.0833V13.9167C31.625 13.3736 31.809 12.9181 32.177 12.5501C32.5437 12.1834 32.9986 12 33.5417 12C34.0847 12 34.5396 12.1834 34.9063 12.5501C35.2743 12.9181 35.4583 13.3736 35.4583 13.9167V33.0833C35.4583 33.6264 35.2743 34.0813 34.9063 34.448C34.5396 34.816 34.0847 35 33.5417 35ZM13.5125 33.0354C12.8736 33.4826 12.2187 33.5146 11.5479 33.1312C10.8771 32.7479 10.5417 32.1729 10.5417 31.4062V15.5938C10.5417 14.8271 10.8771 14.2597 11.5479 13.8917C12.2187 13.525 12.8736 13.5493 13.5125 13.9646L25.3958 21.9187C25.9708 22.3021 26.2583 22.8292 26.2583 23.5C26.2583 24.1708 25.9708 24.6979 25.3958 25.0812L13.5125 33.0354Z" fill="#04080F"/>
</svg>
