<svg width="24" height="24" viewBox="0 0 26 27" fill="none" xmlns="http://www.w3.org/2000/svg">
<g clip-path="url(#clip0_5_1714)">
<path d="M3.5 20.6059C5.96667 20.6059 7.93333 19.5593 9.4 17.4661C9.4 17.3192 9.31667 17.1907 9.15 17.0805L8.2 14.9873C7.76667 15.9788 7.125 16.7775 6.275 17.3835C5.425 17.9894 4.5 18.2924 3.5 18.2924H1.05C0.783333 18.2924 0.541667 18.4117 0.325 18.6504C0.108333 18.8891 0 19.1554 0 19.4492C0 19.7429 0.108333 20.0092 0.325 20.2479C0.541667 20.4866 0.783333 20.6059 1.05 20.6059H3.5ZM22.1 0.995762C21.5667 0.481637 21.0667 0.481637 20.6 0.995762C20.1 1.54661 20.1 2.09746 20.6 2.6483L21.95 4.19068H17.8C15.3667 4.19068 13.4167 5.23729 11.95 7.33051C11.95 7.44068 12.0167 7.56921 12.15 7.7161L13.1 9.80932C13.5333 8.81779 14.175 8.01907 15.025 7.41313C15.875 6.8072 16.8 6.50424 17.8 6.50424H21.95L20.6 8.04661C20.1 8.59746 20.1 9.1483 20.6 9.69915C20.8 9.91949 21.05 10.0297 21.35 10.0297C21.5833 10.0297 21.8333 9.91949 22.1 9.69915L25.3 6.17373C25.7333 5.62288 25.7333 5.07203 25.3 4.52119L22.1 0.995762ZM22.1 15.0975C21.5667 14.5833 21.0667 14.5833 20.6 15.0975C20.1 15.6483 20.1 16.1992 20.6 16.75L21.95 18.2924H17.8C16.8 18.2924 15.8667 17.9894 15 17.3835C14.1333 16.7775 13.4667 15.9788 13 14.9873L11.85 12.3983L10.65 9.80932L10.15 8.76271C9.55 7.36723 8.65 6.25635 7.45 5.43008C6.25 4.60381 4.93333 4.19068 3.5 4.19068H1.05C0.783333 4.19068 0.541667 4.31003 0.325 4.54873C0.108333 4.78743 0 5.05367 0 5.34746C0 5.64124 0.108333 5.90748 0.325 6.14618C0.541667 6.38489 0.783333 6.50424 1.05 6.50424H3.5C5.63333 6.50424 7.23333 7.60593 8.3 9.80932L9.5 12.3983L10.65 14.9873L11.2 16.0339C11.8667 17.4294 12.7917 18.5403 13.975 19.3665C15.1583 20.1928 16.4667 20.6059 17.9 20.6059H22.1L20.7 22.1483C20.2 22.6992 20.2 23.25 20.7 23.8008C20.9 24.0212 21.15 24.1314 21.45 24.1314C21.7167 24.1314 21.9667 24.0212 22.2 23.8008L25.4 20.2754C25.8333 19.7246 25.8333 19.1737 25.4 18.6229L22.1 15.0975Z" fill="#507DBC"/>
</g>
<defs>
<clipPath id="clip0_5_1714">
<rect width="24" height="24" fill="white" transform="translate(0 0.5)"/>
</clipPath>
</defs>
</svg>
