<svg width="24" height="24" viewBox="0 0 24 24" fill="none" xmlns="http://www.w3.org/2000/svg">
<path d="M12 5.625C10.7391 5.625 9.5066 5.99889 8.45824 6.69938C7.40988 7.39988 6.59278 8.39551 6.11027 9.56039C5.62776 10.7253 5.50151 12.0071 5.74749 13.2437C5.99347 14.4803 6.60063 15.6162 7.49219 16.5078C8.38375 17.3994 9.51967 18.0065 10.7563 18.2525C11.9929 18.4985 13.2747 18.3722 14.4396 17.8897C15.6045 17.4072 16.6001 16.5901 17.3006 15.5418C18.0011 14.4934 18.375 13.2609 18.375 12C18.3725 10.31 17.7001 8.68994 16.5051 7.49493C15.3101 6.29993 13.69 5.62748 12 5.625ZM12 16.875C11.0358 16.875 10.0933 16.5891 9.2916 16.0534C8.48991 15.5177 7.86506 14.7564 7.49609 13.8656C7.12711 12.9748 7.03057 11.9946 7.21867 11.0489C7.40677 10.1033 7.87107 9.23464 8.55285 8.55285C9.23464 7.87107 10.1033 7.40677 11.0489 7.21867C11.9946 7.03057 12.9748 7.12711 13.8656 7.49609C14.7564 7.86506 15.5177 8.48991 16.0534 9.2916C16.5891 10.0933 16.875 11.0358 16.875 12C16.875 13.2929 16.3614 14.5329 15.4471 15.4471C14.5329 16.3614 13.2929 16.875 12 16.875ZM11.25 3.375V2.625C11.25 2.42609 11.329 2.23532 11.4697 2.09467C11.6103 1.95402 11.8011 1.875 12 1.875C12.1989 1.875 12.3897 1.95402 12.5303 2.09467C12.671 2.23532 12.75 2.42609 12.75 2.625V3.375C12.75 3.57391 12.671 3.76468 12.5303 3.90533C12.3897 4.04598 12.1989 4.125 12 4.125C11.8011 4.125 11.6103 4.04598 11.4697 3.90533C11.329 3.76468 11.25 3.57391 11.25 3.375ZM4.8375 5.89688C4.70823 5.75421 4.63877 5.56729 4.64351 5.37483C4.64825 5.18236 4.72682 4.99909 4.86296 4.86296C4.99909 4.72682 5.18236 4.64825 5.37483 4.64351C5.56729 4.63877 5.75421 4.70823 5.89688 4.8375L6.43125 5.37187C6.57151 5.51247 6.65028 5.70296 6.65028 5.90156C6.65028 6.10016 6.57151 6.29065 6.43125 6.43125C6.28947 6.56926 6.09942 6.64649 5.90156 6.64649C5.7037 6.64649 5.51365 6.56926 5.37187 6.43125L4.8375 5.89688ZM4.125 12C4.125 12.1989 4.04598 12.3897 3.90533 12.5303C3.76468 12.671 3.57391 12.75 3.375 12.75H2.625C2.42609 12.75 2.23532 12.671 2.09467 12.5303C1.95402 12.3897 1.875 12.1989 1.875 12C1.875 11.8011 1.95402 11.6103 2.09467 11.4697C2.23532 11.329 2.42609 11.25 2.625 11.25H3.375C3.57391 11.25 3.76468 11.329 3.90533 11.4697C4.04598 11.6103 4.125 11.8011 4.125 12ZM6.43125 17.5687C6.57151 17.7093 6.65028 17.8998 6.65028 18.0984C6.65028 18.297 6.57151 18.4875 6.43125 18.6281L5.89688 19.1625C5.75688 19.3004 5.56836 19.3778 5.37187 19.3781C5.17272 19.3773 4.98147 19.3001 4.8375 19.1625C4.69724 19.0219 4.61847 18.8314 4.61847 18.6328C4.61847 18.4342 4.69724 18.2437 4.8375 18.1031L5.37187 17.5687C5.51247 17.4285 5.70296 17.3497 5.90156 17.3497C6.10016 17.3497 6.29065 17.4285 6.43125 17.5687ZM12.75 20.625V21.375C12.75 21.5739 12.671 21.7647 12.5303 21.9053C12.3897 22.046 12.1989 22.125 12 22.125C11.8011 22.125 11.6103 22.046 11.4697 21.9053C11.329 21.7647 11.25 21.5739 11.25 21.375V20.625C11.25 20.4261 11.329 20.2353 11.4697 20.0947C11.6103 19.954 11.8011 19.875 12 19.875C12.1989 19.875 12.3897 19.954 12.5303 20.0947C12.671 20.2353 12.75 20.4261 12.75 20.625ZM19.1625 18.1031C19.3028 18.2437 19.3815 18.4342 19.3815 18.6328C19.3815 18.8314 19.3028 19.0219 19.1625 19.1625C19.0185 19.3001 18.8273 19.3773 18.6281 19.3781C18.4316 19.3778 18.2431 19.3004 18.1031 19.1625L17.5687 18.6281C17.4395 18.4855 17.37 18.2985 17.3748 18.1061C17.3795 17.9136 17.4581 17.7303 17.5942 17.5942C17.7303 17.4581 17.9136 17.3795 18.1061 17.3748C18.2985 17.37 18.4855 17.4395 18.6281 17.5687L19.1625 18.1031ZM22.125 12C22.125 12.1989 22.046 12.3897 21.9053 12.5303C21.7647 12.671 21.5739 12.75 21.375 12.75H20.625C20.4261 12.75 20.2353 12.671 20.0947 12.5303C19.954 12.3897 19.875 12.1989 19.875 12C19.875 11.8011 19.954 11.6103 20.0947 11.4697C20.2353 11.329 20.4261 11.25 20.625 11.25H21.375C21.5739 11.25 21.7647 11.329 21.9053 11.4697C22.046 11.6103 22.125 11.8011 22.125 12ZM17.5687 6.43125C17.4285 6.29065 17.3497 6.10016 17.3497 5.90156C17.3497 5.70296 17.4285 5.51247 17.5687 5.37187L18.1031 4.8375C18.1713 4.76221 18.2541 4.70157 18.3465 4.65925C18.4389 4.61693 18.5389 4.59382 18.6405 4.59132C18.742 4.58882 18.843 4.60698 18.9374 4.6447C19.0317 4.68242 19.1174 4.73892 19.1892 4.81076C19.2611 4.8826 19.3176 4.96829 19.3553 5.06263C19.393 5.15696 19.4112 5.25798 19.4087 5.35955C19.4062 5.46112 19.3831 5.56112 19.3408 5.65349C19.2984 5.74585 19.2378 5.82866 19.1625 5.89688L18.6281 6.43125C18.4863 6.56926 18.2963 6.64649 18.0984 6.64649C17.9006 6.64649 17.7105 6.56926 17.5687 6.43125Z" fill="#DAE3E5"/>
</svg>
